<?xml version="1.0" standalone="no"?>
<!DOCTYPE svg PUBLIC "-//W3C//DTD SVG 20010904//EN"
 "http://www.w3.org/TR/2001/REC-SVG-20010904/DTD/svg10.dtd">
<svg version="1.0" xmlns="http://www.w3.org/2000/svg"
 width="500.000000pt" height="500.000000pt" viewBox="0 0 500.000000 500.000000"
 preserveAspectRatio="xMidYMid meet">
<metadata>
Created by potrace 1.14, written by Peter Selinger 2001-2017
</metadata>
<g transform="translate(0.000000,500.000000) scale(0.100000,-0.100000)"
fill="#000000" stroke="none">
<path d="M0 2500 l0 -2500 2500 0 2500 0 0 2500 0 2500 -2500 0 -2500 0 0
-2500z m1758 1182 c2 -7 -3 -12 -12 -12 -9 0 -16 7 -16 16 0 17 22 14 28 -4z
m-33 -41 c7 -12 -12 -24 -25 -16 -11 7 -4 25 10 25 5 0 11 -4 15 -9z m49 -30
c3 -5 -1 -14 -8 -20 -16 -13 -32 2 -21 19 8 12 22 13 29 1z m-84 -26 c0 -8 -7
-15 -15 -15 -8 0 -15 7 -15 15 0 8 7 15 15 15 8 0 15 -7 15 -15z m107 -27 c-3
-8 -6 -5 -6 6 -1 11 2 17 5 13 3 -3 4 -12 1 -19z m-59 -5 c-4 -22 -22 -20 -26
1 -2 10 3 16 13 16 10 0 15 -7 13 -17z m-78 -18 c0 -8 -7 -15 -15 -15 -8 0
-15 7 -15 15 0 8 7 15 15 15 8 0 15 -7 15 -15z m130 -21 c0 -8 -7 -14 -15 -14
-15 0 -21 21 -9 33 10 9 24 -2 24 -19z m-85 -5 c10 -15 -1 -23 -20 -15 -9 3
-13 10 -10 16 8 13 22 13 30 -1z m-80 -18 c7 -12 -12 -24 -25 -16 -11 7 -4 25
10 25 5 0 11 -4 15 -9z m131 -12 c10 -17 -13 -36 -27 -22 -12 12 -4 33 11 33
5 0 12 -5 16 -11z m-81 -19 c3 -6 -1 -13 -10 -16 -19 -8 -30 0 -20 15 8 14 22
14 30 1z m-85 -25 c0 -8 -7 -15 -15 -15 -8 0 -15 7 -15 15 0 8 7 15 15 15 8 0
15 -7 15 -15z m125 -5 c-3 -5 -11 -10 -16 -10 -6 0 -7 5 -4 10 3 6 11 10 16
10 6 0 7 -4 4 -10z m75 0 c0 -5 -5 -10 -11 -10 -5 0 -7 5 -4 10 3 6 8 10 11
10 2 0 4 -4 4 -10z m741 -58 c43 -38 45 -39 149 -46 58 -4 114 -9 125 -12 14
-3 35 6 60 26 30 24 47 30 74 28 28 -2 37 -8 39 -25 4 -27 -33 -53 -87 -60
-52 -7 -63 -32 -69 -154 l-4 -96 38 -7 c22 -3 53 -9 71 -12 38 -7 101 20 150
66 18 16 64 76 102 132 38 57 82 113 98 124 45 34 90 54 118 54 40 0 28 -29
-19 -45 -60 -21 -105 -64 -177 -171 -70 -102 -109 -142 -169 -174 l-36 -18
118 -123 c138 -144 158 -159 217 -159 37 0 49 5 76 34 22 23 36 31 45 26 12
-7 12 -13 0 -36 -33 -61 -125 -82 -198 -45 -20 10 -83 67 -140 125 -151 155
-156 158 -235 150 l-64 -6 -17 -79 c-32 -148 -99 -211 -233 -217 -64 -4 -80
-1 -139 27 -42 19 -68 38 -71 51 -3 11 -9 20 -14 20 -5 0 -9 10 -9 23 0 17 -2
19 -10 7 -8 -12 -17 -11 -65 13 -30 15 -55 25 -55 22 0 -2 8 -20 17 -39 14
-29 20 -35 40 -30 24 6 33 -11 11 -18 -8 -3 -4 -10 11 -17 17 -10 25 -10 31
-2 4 8 12 5 25 -9 14 -16 16 -23 7 -32 -10 -10 -24 -8 -64 6 -36 13 -53 15
-56 7 -8 -23 -24 -10 -18 13 7 28 -11 46 -20 22 -3 -9 -13 -16 -21 -16 -12 0
-14 -8 -10 -32 3 -18 3 -27 0 -20 -2 6 -11 12 -19 12 -8 0 -14 4 -14 9 0 5 -3
16 -6 24 -4 12 0 14 15 10 23 -6 31 21 9 31 -7 3 -1 3 15 0 15 -4 27 -3 27 1
0 8 -22 88 -26 93 -1 2 -16 -4 -33 -12 -32 -17 -55 -49 -48 -69 2 -7 -10 -25
-28 -42 -17 -16 -40 -43 -50 -58 -23 -37 -55 -32 -76 10 -20 41 -39 26 -32
-26 6 -45 -14 -65 -63 -64 -37 1 -96 39 -115 75 -9 17 -6 26 27 59 35 36 39
38 56 22 23 -21 33 -11 17 15 -11 18 -10 24 5 41 21 23 19 39 -26 235 l-21 89
-17 -44 c-37 -94 -98 -215 -124 -246 -16 -19 -24 -37 -20 -48 5 -11 2 -16 -9
-13 -8 2 -30 -11 -49 -28 -19 -17 -47 -34 -63 -38 -27 -7 -28 -9 -12 -20 9 -7
17 -19 17 -26 0 -7 7 -10 15 -7 8 4 17 2 19 -2 10 -15 117 -22 133 -9 13 10
21 5 52 -27 20 -22 47 -55 61 -73 l25 -33 55 27 c46 22 184 74 197 74 2 0 2
-4 -2 -9 -9 -15 15 -25 28 -12 9 9 8 14 -3 22 -12 8 -9 9 10 5 14 -2 34 1 44
9 17 13 21 12 31 -2 13 -18 35 -10 35 13 0 22 27 17 33 -7 3 -12 10 -18 17
-14 6 4 8 16 4 27 -4 14 -2 18 5 14 6 -4 11 -14 11 -23 0 -11 6 -8 21 11 21
26 39 34 39 16 0 -5 -7 -10 -15 -10 -8 0 -15 -9 -15 -19 0 -11 -4 -21 -10 -23
-6 -2 -6 -8 0 -18 8 -13 10 -12 10 3 0 21 26 23 34 2 3 -8 13 -15 22 -15 12 0
15 6 10 26 -6 22 -5 24 8 12 21 -20 1 -50 -32 -48 -52 4 -52 4 -52 -80 0 -79
0 -80 -25 -78 -24 2 -25 4 -25 83 0 46 -4 75 -9 67 -14 -23 -58 -41 -69 -30
-6 6 -18 8 -28 4 -13 -5 -14 -10 -6 -18 16 -16 -34 -109 -54 -101 -18 7 -18
19 1 27 9 3 12 12 8 22 -9 23 38 114 60 114 11 0 17 -8 17 -21 0 -14 5 -19 17
-17 24 4 28 27 6 35 -10 4 -26 16 -35 28 l-18 20 -6 -22 c-3 -13 -12 -23 -19
-23 -13 0 -46 -43 -44 -57 0 -4 -8 -10 -18 -14 -9 -3 -20 -15 -23 -27 -3 -15
-9 -19 -18 -13 -11 7 -9 16 7 47 12 21 21 34 21 29 0 -5 5 -4 11 2 7 7 8 17 2
27 -7 13 -17 4 -53 -44 -25 -33 -51 -60 -57 -60 -7 0 -13 -7 -13 -15 0 -8 5
-15 10 -15 15 0 -17 -58 -47 -86 -43 -40 -54 -27 -15 18 7 9 11 22 7 27 -3 7
2 11 14 11 24 0 27 12 7 29 -15 12 -46 5 -46 -11 0 -5 -4 -7 -9 -4 -4 3 -6 -5
-4 -18 8 -39 -24 -129 -60 -171 -41 -48 -90 -142 -82 -155 14 -23 29 -4 76 98
48 103 69 132 95 132 19 0 -103 -253 -129 -270 -12 -7 -35 -17 -52 -21 l-30
-7 33 -1 c20 -1 57 13 98 35 60 33 65 34 59 15 -4 -14 -2 -21 7 -21 8 0 14 8
15 18 1 9 3 26 5 37 2 16 -2 19 -19 18 -19 -2 -23 2 -23 26 0 15 11 43 25 62
14 19 33 53 44 76 16 34 54 64 66 51 2 -1 -10 -31 -25 -65 -21 -45 -26 -70
-21 -89 6 -25 9 -21 41 47 18 41 39 77 46 81 7 5 10 17 7 27 -4 17 3 20 74 26
43 3 100 10 126 16 26 5 104 9 173 9 110 0 125 -2 131 -17 3 -10 15 -28 25
-40 25 -27 16 -61 -18 -69 -30 -8 -54 11 -54 42 0 23 -2 24 -90 24 -75 0 -90
-3 -90 -16 0 -9 -5 -12 -12 -8 -10 6 -10 4 0 -7 18 -19 15 -57 -5 -67 -10 -5
-30 -12 -46 -16 l-27 -6 20 37 c29 54 27 83 -6 83 -20 0 -24 -3 -17 -12 16
-20 -31 -118 -57 -118 -24 0 -25 9 -4 53 12 26 21 33 35 30 22 -6 26 15 4 23
-8 4 -12 10 -9 15 3 5 -6 9 -20 9 -15 0 -25 -5 -23 -12 1 -7 -4 -13 -10 -14
-26 -3 -28 -5 -14 -13 23 -15 -12 -81 -39 -74 -25 7 -25 4 6 64 l25 51 -22 -4
c-24 -3 -25 -5 -66 -98 -27 -61 -28 -66 -12 -82 15 -14 20 -14 36 -3 17 13 17
14 1 15 -15 0 -16 4 -6 25 9 20 14 22 29 14 18 -9 18 -11 -1 -49 -11 -22 -16
-40 -12 -40 13 0 62 47 62 60 0 5 21 10 48 10 27 0 71 7 100 15 28 9 54 15 59
14 4 -1 16 1 25 5 9 4 28 1 43 -6 l26 -14 -21 -24 c-14 -16 -19 -32 -15 -45 3
-11 9 -39 12 -62 7 -51 27 -56 70 -19 21 19 28 35 33 77 4 40 9 55 22 57 12 2
18 -5 21 -25 4 -26 5 -27 12 -6 8 23 31 21 51 -5 7 -10 13 -11 17 -4 4 5 16 8
27 5 11 -3 35 2 54 11 74 35 127 -37 80 -109 -14 -21 -13 -22 13 -23 16 0 39
-2 52 -4 21 -3 27 4 46 51 24 59 73 111 105 111 29 0 70 -21 70 -37 0 -20 10
-16 32 13 15 18 24 22 31 15 27 -27 34 -10 36 87 1 53 4 105 7 114 4 15 -5 18
-88 20 -75 2 -93 6 -93 18 0 12 19 16 97 18 86 2 98 5 103 22 3 11 18 28 32
40 31 24 60 13 75 -31 13 -39 51 -40 75 -1 9 15 27 38 39 52 13 14 37 50 53
80 17 30 31 53 31 50 4 -23 12 -153 11 -183 0 -26 3 -37 11 -35 19 7 26 59 17
124 -5 37 -4 65 3 78 6 11 14 31 18 45 10 33 11 -291 1 -327 -7 -26 -8 -26
-15 11 -5 27 -12 37 -26 37 -17 0 -18 -3 -9 -27 11 -30 5 -84 -18 -156 -25
-79 -2 -76 44 5 57 104 56 97 62 278 6 150 7 161 18 125 25 -82 36 -242 23
-326 -10 -65 -15 -77 -26 -68 -12 9 -14 3 -14 -37 0 -35 -9 -64 -30 -103 -38
-68 -38 -74 1 -31 l30 35 -5 -35 c-4 -19 -16 -48 -27 -63 -29 -39 -15 -47 21
-12 35 34 54 94 46 146 -3 21 1 56 10 85 8 27 18 105 21 174 7 165 -5 223 -89
435 -11 28 -22 55 -24 61 -7 16 134 24 214 12 189 -29 339 -181 372 -378 23
-137 -25 -278 -128 -379 -82 -80 -202 -131 -307 -131 -33 0 -47 -6 -71 -31
-33 -35 -74 -59 -101 -59 -10 0 -38 -14 -62 -30 -24 -17 -56 -30 -70 -30 -24
1 -24 2 11 20 37 20 54 37 45 46 -2 3 -20 -4 -38 -15 -19 -11 -56 -23 -84 -26
-50 -7 -71 -2 -172 40 -25 11 -52 15 -68 11 -33 -8 -25 -22 17 -29 18 -2 56
-13 83 -25 121 -49 223 -59 284 -28 l32 17 -22 -43 c-35 -69 -134 -160 -219
-201 -158 -78 -313 -76 -479 4 -78 39 -179 135 -215 208 -15 29 -31 50 -36 45
-4 -5 -10 -76 -12 -159 -3 -132 -6 -156 -27 -198 -24 -50 -50 -64 -96 -53 -91
23 -61 233 51 365 32 36 34 44 34 110 l0 70 -35 -15 c-19 -7 -42 -14 -51 -14
-9 0 -32 -14 -51 -30 -50 -44 -104 -42 -148 5 l-33 34 -18 -20 c-27 -30 -73
-52 -98 -46 -11 2 -48 16 -81 31 l-60 26 34 -29 34 -30 -38 -7 c-49 -9 -175
19 -231 52 -41 23 -104 86 -104 104 0 5 5 12 10 15 17 10 11 25 -9 25 -11 0
-33 12 -50 26 -25 21 -30 31 -25 52 4 15 12 34 19 42 6 8 26 45 43 82 27 60
39 73 111 125 44 32 80 61 80 64 1 4 -14 9 -31 13 -28 5 -112 56 -128 76 -6 8
-9 9 -132 14 -56 2 -100 0 -104 -5 -3 -6 -14 -7 -25 -4 -27 9 -24 -13 10 -66
31 -50 92 -94 116 -85 25 9 17 22 -23 34 -22 7 -47 24 -60 42 -23 30 -15 43 8
15 7 -8 17 -15 22 -15 5 0 22 -10 38 -22 16 -12 33 -19 37 -15 3 4 1 7 -5 7
-16 0 -15 37 1 43 6 2 20 0 29 -4 10 -6 19 -5 23 1 3 5 -1 10 -10 10 -8 0 -18
7 -21 15 -10 24 -41 18 -40 -7 1 -14 -6 -24 -17 -26 -20 -4 -34 25 -19 40 17
17 99 19 115 3 8 -8 17 -11 20 -8 4 3 18 -2 32 -11 42 -28 30 -58 -30 -77 -41
-14 -52 -23 -69 -59 -19 -39 -20 -43 -4 -70 16 -28 16 -29 -3 -35 -19 -6 -27
-45 -9 -45 6 0 10 -7 10 -15 0 -8 -4 -15 -10 -15 -13 0 0 -100 17 -128 8 -13
23 -26 33 -30 10 -4 29 -23 42 -42 63 -93 191 -146 336 -138 48 3 96 8 107 12
11 3 -3 -5 -30 -19 -63 -30 -177 -55 -257 -55 -77 0 -242 34 -321 65 -53 21
-70 24 -110 16 -51 -9 -107 -2 -147 18 -35 18 -90 72 -90 88 0 21 25 15 51
-13 32 -36 95 -64 143 -64 l39 0 -42 30 c-47 34 -81 84 -81 118 0 23 -14 30
-25 12 -11 -17 -76 -40 -114 -40 -43 0 -71 24 -98 85 -23 54 -33 437 -10 395
8 -14 17 -48 20 -77 3 -29 12 -63 19 -75 12 -22 13 -22 18 15 3 21 10 36 15
35 6 -2 11 19 13 46 3 47 4 48 23 30 18 -16 21 -16 35 -2 14 14 12 18 -15 46
-37 36 -38 54 -10 124 14 36 23 85 26 153 4 75 11 109 26 137 11 21 18 40 16
43 -6 5 -59 -72 -59 -85 0 -4 -7 -10 -15 -14 -22 -8 -18 -36 5 -36 18 0 19 -3
10 -20 -13 -24 -30 -26 -30 -4 0 10 -6 14 -15 10 -11 -4 -15 1 -15 19 0 13 5
27 10 30 6 3 10 15 10 26 0 10 7 19 15 19 8 0 15 6 15 14 0 19 55 58 77 55 10
-1 38 8 63 19 76 36 170 27 227 -23 30 -26 35 -36 26 -46 -9 -9 -19 -6 -43 15
-17 14 -39 27 -48 28 -66 6 -111 5 -135 -4 -29 -11 -35 -24 -15 -30 10 -4 6
-19 -12 -56 -21 -43 -29 -52 -47 -49 -17 3 -23 -1 -23 -14 0 -12 7 -19 19 -19
16 0 20 -8 23 -37 4 -44 28 -58 28 -16 0 54 10 74 34 67 31 -10 33 -14 13 -29
-22 -16 -15 -55 10 -55 11 0 14 -6 9 -25 -6 -24 7 -35 19 -15 10 15 35 12 35
-5 0 -10 10 -15 29 -15 24 0 28 3 24 20 -6 24 24 29 33 5 7 -16 41 -20 62 -7
7 5 10 16 6 25 -3 10 -1 17 5 17 6 0 11 -4 11 -10 0 -5 4 -10 9 -10 11 0 53
41 67 66 6 10 17 19 25 19 9 0 13 9 11 23 -2 15 2 22 12 22 23 0 62 68 113
197 39 100 44 122 38 161 -5 32 -9 41 -16 31 -7 -11 -9 -11 -9 4 0 9 5 17 10
17 6 0 10 11 10 24 0 16 -7 26 -22 29 -18 5 -19 9 -9 21 7 8 19 12 27 9 12 -4
14 0 8 22 -6 23 -4 26 11 23 10 -1 18 -6 17 -10 -1 -5 7 -17 18 -28 22 -22 26
-69 11 -134 -10 -41 -7 -61 45 -276 l27 -114 47 51 c31 34 59 79 80 130 63
153 213 383 250 383 11 0 20 -3 20 -6 0 -4 -13 -49 -30 -101 -16 -51 -30 -99
-30 -105 0 -7 34 21 76 62 62 61 75 70 71 50 -2 -14 -8 -33 -12 -42 -11 -27
12 -22 30 6 9 13 19 41 22 62 7 44 18 63 48 74 33 14 40 12 86 -28z m-1134 16
c-2 -7 -10 -12 -16 -10 -6 1 -16 -9 -21 -23 -5 -14 -14 -25 -20 -25 -5 0 -10
-6 -10 -14 0 -21 -111 -111 -132 -108 -10 2 -18 -2 -18 -9 0 -6 -20 -29 -45
-51 -33 -29 -49 -53 -57 -84 -16 -59 -28 -56 -25 6 1 36 6 49 15 45 18 -7 28
25 11 35 -19 12 8 67 62 125 31 34 47 44 61 39 14 -4 21 0 25 14 5 21 75 58
91 48 5 -3 15 1 22 9 15 18 64 20 57 3z m291 -15 c-5 -25 -28 -28 -28 -4 0 12
6 21 16 21 9 0 14 -7 12 -17z m-78 -18 c0 -8 -6 -15 -14 -15 -17 0 -28 14 -19
24 12 12 33 6 33 -9z m46 -26 c10 -17 -13 -36 -27 -22 -12 12 -4 33 11 33 5 0
12 -5 16 -11z m-86 -24 c0 -8 -7 -15 -15 -15 -8 0 -15 7 -15 15 0 8 7 15 15
15 8 0 15 -7 15 -15z m135 -5 c3 -5 -3 -10 -15 -10 -12 0 -18 5 -15 10 3 6 10
10 15 10 5 0 12 -4 15 -10z m-90 -28 c0 -18 -20 -15 -23 4 -3 10 1 15 10 12 7
-3 13 -10 13 -16z m-75 -17 c0 -8 -7 -15 -15 -15 -8 0 -15 7 -15 15 0 8 7 15
15 15 8 0 15 -7 15 -15z m128 -18 c2 -10 -3 -17 -12 -17 -10 0 -16 9 -16 21 0
24 23 21 28 -4z m-208 3 c0 -5 -6 -10 -14 -10 -8 0 -18 5 -21 10 -3 6 3 10 14
10 12 0 21 -4 21 -10z m130 -13 c0 -8 -3 -17 -7 -20 -9 -9 -34 13 -27 24 8 14
34 11 34 -4z m2029 -23 c17 -14 31 -30 31 -35 0 -12 -43 -79 -51 -79 -4 0 -9
17 -12 38 -4 20 -9 52 -13 70 -8 39 4 41 45 6z m-2109 12 c0 -2 -9 -6 -20 -9
-11 -3 -20 -1 -20 4 0 5 9 9 20 9 11 0 20 -2 20 -4z m200 -4 c0 -13 -12 -22
-22 -16 -10 6 -1 24 13 24 5 0 9 -4 9 -8z m-290 -17 c0 -8 -7 -15 -15 -15 -16
0 -20 12 -8 23 11 12 23 8 23 -8z m218 -8 c2 -10 -3 -17 -12 -17 -18 0 -29 16
-21 31 9 14 29 6 33 -14z m-378 3 c0 -5 -5 -10 -11 -10 -5 0 -7 5 -4 10 3 6 8
10 11 10 2 0 4 -4 4 -10z m298 -17 c2 -8 -5 -13 -17 -13 -12 0 -21 6 -21 16 0
18 31 15 38 -3z m126 -2 c7 -10 -22 -37 -30 -28 -9 8 3 37 15 37 5 0 12 -4 15
-9z m-448 -39 c-3 -6 -15 -8 -26 -5 -23 6 -28 -15 -8 -35 9 -9 9 -15 0 -24 -9
-9 -12 -9 -12 0 0 7 -7 12 -16 12 -11 0 -15 -6 -11 -20 3 -13 0 -20 -8 -20 -7
0 -20 -3 -29 -6 -12 -4 -16 0 -16 15 0 12 7 24 15 27 8 4 15 11 15 17 0 5 17
25 38 43 31 27 39 30 51 19 7 -7 11 -18 7 -23z m234 23 c0 -8 -7 -15 -15 -15
-16 0 -20 12 -8 23 11 12 23 8 23 -8z m-85 -5 c-3 -5 -10 -10 -16 -10 -5 0 -9
5 -9 10 0 6 7 10 16 10 8 0 12 -4 9 -10z m220 -10 c0 -22 -29 -18 -33 3 -3 14
1 18 15 15 10 -2 18 -10 18 -18z m-85 -15 c0 -8 -7 -15 -15 -15 -8 0 -15 7
-15 15 0 8 7 15 15 15 8 0 15 -7 15 -15z m-85 -15 c0 -7 -6 -15 -12 -17 -8 -3
-13 4 -13 17 0 13 5 20 13 18 6 -3 12 -11 12 -18z m198 0 c-3 -12 -8 -19 -11
-16 -5 6 5 36 12 36 2 0 2 -9 -1 -20z m2017 -84 c-11 -19 -27 -37 -35 -40 -26
-10 -17 34 18 88 l32 51 3 -33 c2 -20 -5 -45 -18 -66z m-2080 70 c0 -21 -21
-31 -30 -15 -5 7 -6 17 -4 21 9 14 34 9 34 -6z m-80 -21 c0 -8 -6 -15 -14 -15
-17 0 -28 14 -19 24 12 12 33 6 33 -9z m-84 -6 c10 -17 -13 -36 -27 -22 -12
12 -4 33 11 33 5 0 12 -5 16 -11z m212 -12 c2 -10 -3 -17 -12 -17 -18 0 -29
16 -21 31 9 14 29 6 33 -14z m-82 -8 c10 -17 -13 -36 -27 -22 -12 12 -4 33 11
33 5 0 12 -5 16 -11z m-105 -26 c-8 -15 -10 -15 -11 -2 0 17 10 32 18 25 2 -3
-1 -13 -7 -23z m154 -14 c0 -7 -8 -15 -17 -17 -18 -3 -25 18 -11 32 10 10 28
1 28 -15z m-82 -6 c9 -9 -13 -34 -24 -27 -14 8 -11 34 4 34 8 0 17 -3 20 -7z
m113 -30 c-10 -10 -19 5 -10 18 6 11 8 11 12 0 2 -7 1 -15 -2 -18z m-69 1 c-3
-3 -12 -4 -19 -1 -8 3 -5 6 6 6 11 1 17 -2 13 -5z m-207 -12 c0 -15 -11 -21
-27 -15 -12 5 -12 7 -1 14 17 11 28 11 28 1z m46 -23 c10 -17 -13 -36 -27 -22
-12 12 -4 33 11 33 5 0 12 -5 16 -11z m-86 -24 c0 -8 -7 -15 -15 -15 -8 0 -15
7 -15 15 0 8 7 15 15 15 8 0 15 -7 15 -15z m300 1 c-6 -8 -18 -12 -26 -9 -23
9 -16 23 12 23 22 0 24 -2 14 -14z m-80 -11 c0 -8 -7 -15 -15 -15 -26 0 -18
20 13 29 1 1 2 -6 2 -14z m-90 -10 c0 -8 -7 -15 -15 -15 -8 0 -15 7 -15 15 0
8 7 15 15 15 8 0 15 -7 15 -15z m-80 -15 c0 -11 -7 -20 -15 -20 -15 0 -21 21
-8 33 12 13 23 7 23 -13z m217 4 c8 -21 -13 -42 -28 -27 -13 13 -5 43 11 43 6
0 13 -7 17 -16z m-297 -19 c0 -8 -7 -15 -15 -15 -8 0 -15 7 -15 15 0 8 7 15
15 15 8 0 15 -7 15 -15z m2124 -20 c15 -11 17 -19 10 -36 -10 -21 -11 -20 -34
17 -14 21 -26 43 -28 47 -5 10 23 -5 52 -28z m-1994 -1 c0 -8 -7 -14 -15 -14
-15 0 -21 21 -9 33 10 9 24 -2 24 -19z m88 14 c-2 -6 -10 -14 -16 -16 -7 -2
-10 2 -6 12 7 18 28 22 22 4z m-168 -22 c0 -8 -5 -18 -11 -22 -14 -8 -33 11
-25 25 10 16 36 13 36 -3z m216 3 c9 -15 -11 -33 -30 -26 -9 4 -13 13 -10 22
7 17 30 20 40 4z m1968 -81 c4 -46 3 -96 -2 -113 l-8 -30 -12 33 c-6 18 -9 39
-6 47 3 7 0 39 -6 71 -10 46 -10 58 2 65 23 15 26 10 32 -73z m-2142 30 c-9
-9 -15 -9 -24 0 -10 10 -10 15 2 22 9 6 19 5 24 0 7 -7 6 -14 -2 -22z m-76 1
c10 -17 -13 -36 -27 -22 -12 12 -4 33 11 33 5 0 12 -5 16 -11z m214 -9 c0 -21
-24 -28 -35 -10 -8 14 3 30 21 30 8 0 14 -9 14 -20z m615 -18 c-8 -8 -25 10
-19 20 4 6 9 5 15 -3 4 -7 6 -15 4 -17z m-1101 -16 c-17 -13 -16 -14 1 -23 17
-10 17 -13 -4 -57 -13 -25 -25 -65 -28 -89 -7 -50 -22 -75 -34 -55 -14 21 -10
136 5 173 19 44 68 95 74 77 2 -7 -4 -19 -14 -26z m321 3 c0 -7 -8 -15 -17
-17 -18 -3 -25 18 -11 32 10 10 28 1 28 -15z m65 1 c0 -5 -2 -10 -4 -10 -3 0
-8 5 -11 10 -3 6 -1 10 4 10 6 0 11 -4 11 -10z m200 -40 c0 -13 -7 -20 -20
-20 -13 0 -20 7 -20 20 0 13 7 20 20 20 13 0 20 -7 20 -20z m-30 -41 c0 -4 -7
-6 -15 -3 -8 4 -15 10 -15 15 0 4 7 6 15 3 8 -4 15 -10 15 -15z m510 2 c0 -5
-9 -11 -21 -14 -16 -4 -18 -3 -8 9 13 16 29 19 29 5z m0 -48 c-17 -12 -24 -13
-33 -3 -9 10 -9 11 0 6 6 -3 18 0 25 8 7 8 17 12 21 9 5 -3 -1 -12 -13 -20z
m313 13 c4 -10 0 -12 -14 -9 -10 3 -16 9 -13 14 8 13 21 11 27 -5z m71 -47
c-17 -33 -45 -40 -37 -9 3 10 10 18 17 17 6 -1 10 8 8 22 -2 20 0 22 13 11 13
-11 13 -15 -1 -41z m61 -9 c3 -5 -1 -10 -10 -10 -9 0 -13 5 -10 10 3 6 8 10
10 10 2 0 7 -4 10 -10z m-1110 -30 c1 -8 -4 -18 -9 -22 -15 -10 -36 11 -29 28
7 19 38 14 38 -6z m234 -112 c-13 -25 -28 -38 -44 -38 -5 1 -1 8 10 18 12 9
24 26 28 36 4 10 10 16 13 13 3 -3 0 -16 -7 -29z m361 -24 c0 -7 -7 -19 -15
-28 -8 -8 -15 -19 -15 -25 0 -6 -4 -11 -9 -11 -5 0 -16 -3 -24 -6 -12 -4 -14
0 -10 16 3 12 12 24 19 27 8 3 14 13 14 22 0 10 8 17 20 17 11 0 20 -6 20 -12z
m-432 -24 c-15 -23 -48 -27 -48 -6 0 15 15 24 43 25 15 1 15 -2 5 -19z m1276
-334 c-20 -40 -34 -47 -34 -15 0 18 40 63 48 54 2 -1 -5 -19 -14 -39z m886
-246 c10 -5 22 -22 28 -37 27 -78 -76 -136 -123 -70 -45 64 26 144 95 107z"/>
<path d="M2541 3262 c-7 -16 -32 -48 -56 -72 -45 -44 -51 -69 -12 -49 28 15
76 67 104 113 l22 36 -23 0 c-16 0 -27 -9 -35 -28z"/>
<path d="M2635 3252 c14 -22 35 -62 45 -90 l20 -52 -73 -40 c-94 -51 -110 -70
-132 -155 -10 -38 -33 -97 -50 -132 -26 -52 -29 -63 -16 -68 23 -9 38 19 77
142 20 64 46 125 60 142 25 30 130 88 140 78 3 -3 8 -33 11 -67 5 -56 4 -63
-21 -89 -14 -15 -31 -43 -36 -62 l-9 -34 24 30 c14 17 25 33 25 38 0 4 4 7 10
7 14 0 -15 -87 -44 -131 -14 -21 -36 -43 -48 -50 -23 -11 -23 -11 1 15 25 26
25 26 -40 -6 l-64 -33 35 -3 c112 -11 181 52 210 192 6 32 9 73 6 91 -4 19 -2
36 4 40 5 3 10 45 10 93 1 48 7 105 15 127 8 21 13 40 12 41 -1 1 -46 5 -100
9 l-99 7 27 -40z"/>
<path d="M2146 3206 c-14 -25 -37 -66 -51 -90 -14 -24 -30 -57 -35 -72 -10
-25 -7 -23 37 17 41 38 50 53 65 113 10 38 16 71 14 73 -2 3 -16 -16 -30 -41z"/>
<path d="M2363 3097 c-24 -17 -41 -32 -39 -34 6 -6 96 40 96 48 0 19 -18 15
-57 -14z"/>
<path d="M2243 2998 c-32 -35 -63 -91 -63 -113 0 -21 3 -18 64 88 31 52 30 59
-1 25z"/>
<path d="M2823 2993 c9 -2 23 -2 30 0 6 3 -1 5 -18 5 -16 0 -22 -2 -12 -5z"/>
<path d="M1142 2934 c4 -21 22 -23 26 -1 2 10 -3 17 -13 17 -10 0 -15 -6 -13
-16z"/>
<path d="M1110 2886 c0 -9 7 -16 16 -16 9 0 14 5 12 12 -6 18 -28 21 -28 4z"/>
<path d="M1971 2863 c-10 -26 -10 -27 4 -9 8 11 15 23 15 28 0 15 -7 8 -19
-19z"/>
<path d="M1160 2695 c0 -14 24 -50 44 -67 43 -35 136 -35 156 2 8 16 4 18 -40
19 -28 0 -50 -4 -50 -9 0 -20 -39 -9 -62 18 -25 29 -48 47 -48 37z"/>
<path d="M1083 2679 c-7 -7 -13 -24 -13 -38 0 -27 46 -111 60 -111 16 0 12 20
-9 49 -11 15 -21 46 -23 70 -2 34 -5 40 -15 30z"/>
<path d="M1419 2663 c-21 -3 -26 -8 -22 -24 7 -26 33 -21 44 9 5 12 7 21 6 21
-1 -1 -14 -4 -28 -6z"/>
<path d="M2180 2574 c0 -9 7 -14 17 -12 25 5 28 28 4 28 -12 0 -21 -6 -21 -16z"/>
<path d="M1172 2508 c2 -6 32 -21 66 -32 33 -12 67 -27 74 -33 20 -22 -29 -16
-115 13 -62 21 -81 23 -92 14 -8 -7 -15 -16 -15 -20 0 -16 147 -55 210 -55 39
-1 81 -8 104 -19 32 -14 40 -15 47 -4 6 9 -3 18 -29 32 -20 10 -48 29 -62 41
-23 22 -151 75 -180 75 -6 0 -10 -5 -8 -12z"/>
<path d="M2085 2480 c-4 -6 -3 -16 3 -22 6 -6 12 -6 17 2 4 6 3 16 -3 22 -6 6
-12 6 -17 -2z"/>
<path d="M3206 2414 c-8 -21 -1 -28 19 -20 9 3 15 11 13 18 -7 19 -25 20 -32
2z"/>
<path d="M1035 2390 c-9 -15 31 -30 80 -30 92 0 196 -28 258 -70 70 -48 79
-28 11 24 -35 27 -66 39 -137 55 -109 24 -205 33 -212 21z"/>
<path d="M1708 2310 c-30 -66 -46 -90 -60 -90 -24 0 -23 6 17 94 33 73 34 77
14 74 -16 -2 -33 -29 -71 -112 -27 -59 -48 -110 -46 -112 2 -2 16 3 31 11 15
8 34 12 41 9 20 -8 66 19 106 61 30 32 32 36 12 30 -20 -6 -21 -4 -12 19 5 15
16 39 25 56 19 37 19 50 -1 50 -9 0 -30 -33 -56 -90z"/>
<path d="M3187 2353 c-4 -3 -7 -33 -7 -67 l0 -60 30 29 c23 22 30 38 30 67 0
33 -3 38 -23 38 -13 0 -27 -3 -30 -7z"/>
<path d="M3280 2345 c0 -8 2 -15 4 -15 2 0 6 7 10 15 3 8 1 15 -4 15 -6 0 -10
-7 -10 -15z"/>
<path d="M3424 2344 c-18 -14 -18 -14 6 -3 31 14 36 19 24 19 -6 0 -19 -7 -30
-16z"/>
<path d="M1010 2320 c0 -15 59 -36 152 -55 70 -15 182 -50 251 -80 12 -5 17
-3 17 8 0 22 -143 77 -255 97 -55 10 -113 23 -128 29 -35 13 -37 13 -37 1z"/>
<path d="M2490 2275 c0 -9 5 -15 11 -13 6 2 11 8 11 13 0 5 -5 11 -11 13 -6 2
-11 -4 -11 -13z"/>
<path d="M2330 2155 c12 -15 30 -12 30 6 0 5 -10 9 -21 9 -18 0 -19 -2 -9 -15z"/>
<path d="M3174 2149 c-3 -6 -1 -16 5 -22 9 -9 14 -8 21 3 9 15 4 30 -10 30 -5
0 -12 -5 -16 -11z"/>
<path d="M1644 2140 c-27 -10 -37 -35 -20 -49 10 -9 18 -5 30 14 21 32 17 45
-10 35z"/>
<path d="M3230 2113 c0 -3 11 -21 24 -38 28 -37 104 -64 118 -42 5 8 -3 15
-24 20 -18 5 -49 22 -69 38 -37 29 -49 35 -49 22z"/>
<path d="M1907 2094 c-12 -12 -8 -24 9 -24 11 0 14 -6 9 -21 -6 -19 -5 -20 15
-9 27 14 24 54 -5 58 -12 2 -24 0 -28 -4z"/>
<path d="M2532 2088 c5 -15 28 -18 29 -3 0 6 -7 12 -17 13 -10 3 -15 -1 -12
-10z"/>
<path d="M2602 2088 c5 -15 28 -18 29 -3 0 6 -7 12 -17 13 -10 3 -15 -1 -12
-10z"/>
<path d="M2693 2093 c-7 -3 -13 -9 -13 -15 0 -6 7 -8 15 -4 10 4 15 -1 15 -14
0 -11 5 -20 10 -20 6 0 10 11 10 24 0 25 -15 36 -37 29z"/>
<path d="M2290 2075 c0 -20 22 -65 32 -65 9 0 11 41 2 64 -8 20 -34 21 -34 1z"/>
<path d="M2978 2069 c-16 -11 -28 -18 -28 -14 0 3 -9 -3 -21 -14 -29 -27 -21
-55 16 -59 30 -4 45 -16 45 -39 0 -18 -25 -16 -40 2 -16 19 -31 20 -24 1 5
-13 46 -36 64 -36 6 0 10 16 10 35 0 40 -1 40 36 20 36 -19 48 -19 64 0 10 13
9 15 -9 15 -12 0 -19 5 -16 10 4 6 -6 10 -23 10 -38 0 -56 22 -48 60 3 17 4
30 3 30 -1 0 -14 -10 -29 -21z m-1 -65 c-3 -3 -12 -4 -19 -1 -8 3 -5 6 6 6 11
1 17 -2 13 -5z"/>
<path d="M2236 2061 c-11 -12 -25 -21 -33 -21 -7 0 -13 -3 -14 -7 0 -5 -3 -20
-5 -34 -6 -36 29 -79 65 -79 15 0 37 9 50 21 l22 21 -25 23 c-14 13 -28 36
-31 52 -4 15 -8 32 -9 36 -1 5 -10 -1 -20 -12z"/>
<path d="M1990 2046 c0 -21 6 -26 43 -31 56 -9 99 -3 105 13 2 8 -7 12 -26 12
-16 0 -49 7 -72 15 -53 19 -50 19 -50 -9z"/>
<path d="M2510 2055 c0 -8 5 -15 10 -15 6 0 10 7 10 15 0 8 -4 15 -10 15 -5 0
-10 -7 -10 -15z"/>
<path d="M2570 2055 c0 -8 7 -15 15 -15 8 0 15 7 15 15 0 8 -7 15 -15 15 -8 0
-15 -7 -15 -15z"/>
<path d="M2530 2026 c0 -2 7 -6 15 -10 8 -3 15 -1 15 4 0 6 -7 10 -15 10 -8 0
-15 -2 -15 -4z"/>
<path d="M2673 2010 c1 -11 4 -20 8 -20 11 0 29 27 22 33 -14 14 -32 6 -30
-13z"/>
<path d="M2540 1976 c-19 -7 -36 -20 -38 -29 -2 -10 -1 -17 3 -17 13 0 62 29
74 44 16 19 8 19 -39 2z"/>
<path d="M3370 1956 c-7 -15 -27 -35 -44 -46 l-31 -21 29 3 c21 2 35 12 48 37
10 18 17 38 16 43 -2 5 -10 -2 -18 -16z"/>
<path d="M3137 1956 c-8 -19 64 -66 100 -66 l28 0 -30 16 c-16 8 -41 26 -56
40 -29 28 -35 29 -42 10z"/>
<path d="M2424 1734 c-46 -74 -66 -133 -66 -193 -1 -42 4 -57 18 -68 23 -17
33 -13 56 18 23 31 44 209 31 260 l-9 33 -30 -50z"/>
<path d="M1280 3345 c0 -8 7 -15 15 -15 8 0 15 7 15 15 0 8 -7 15 -15 15 -8 0
-15 -7 -15 -15z"/>
<path d="M1247 3304 c-13 -13 -7 -24 14 -24 11 0 19 5 17 12 -5 14 -22 21 -31
12z"/>
<path d="M1167 3293 c-13 -12 -7 -33 8 -33 8 0 15 9 15 20 0 20 -11 26 -23 13z"/>
<path d="M1210 3245 c0 -8 7 -15 15 -15 8 0 15 7 15 15 0 8 -7 15 -15 15 -8 0
-15 -7 -15 -15z"/>
<path d="M1130 3230 c0 -13 5 -20 13 -17 6 2 12 10 12 17 0 7 -6 15 -12 18 -8
2 -13 -5 -13 -18z"/>
<path d="M1094 3189 c-10 -17 13 -36 27 -22 12 12 4 33 -11 33 -5 0 -12 -5
-16 -11z"/>
<path d="M970 2685 c0 -8 7 -15 15 -15 8 0 15 7 15 15 0 8 -7 15 -15 15 -8 0
-15 -7 -15 -15z"/>
</g>
</svg>
